<svg width="20" height="20" viewBox="0 0 20 20" fill="none" xmlns="http://www.w3.org/2000/svg">
<path d="M18.4199 3.35938C18.373 3.35547 13.6328 2.86523 10.3379 0.472656C10.2383 0.400391 10.123 0.363281 10 0.363281C9.87891 0.363281 9.76172 0.400391 9.66211 0.472656C6.38477 2.85156 1.62695 3.35547 1.58008 3.35938C1.2832 3.38672 1.06055 3.63477 1.06055 3.93164C1.06055 4.0625 1.07227 7.16992 2.13086 10.6582C2.75781 12.7246 3.62305 14.4941 4.70703 15.916C6.08008 17.7188 7.80273 18.9629 9.82422 19.6113C9.88086 19.6289 9.93945 19.6387 10 19.6387C10.0605 19.6387 10.1191 19.6289 10.1738 19.6113C12.1973 18.9629 13.918 17.7207 15.291 15.916C16.373 14.4961 17.2402 12.7285 17.8672 10.6582C18.9238 7.16992 18.9375 4.0625 18.9375 3.93164C18.9395 3.63477 18.7168 3.38867 18.4199 3.35938ZM17.7754 4.4375L17.7734 4.46875C17.7168 5.60352 17.5117 7.875 16.7695 10.3262C15.4668 14.625 13.1934 17.3594 10.0117 18.4531L10 18.457L9.98828 18.4531C6.81641 17.3613 4.54492 14.6367 3.23828 10.3535C2.46094 7.80469 2.27344 5.38867 2.22656 4.4668L2.22461 4.43555L2.25391 4.43164C3.63281 4.23047 7.14648 3.55664 9.97851 1.65039L9.99609 1.63672L10.0156 1.65039C12.8516 3.55664 16.3652 4.23047 17.7441 4.43359L17.7754 4.4375Z" fill="#ACADAD" fill-opacity="0.5"/>
<path d="M12.5352 6.85543L9.12109 11.3339L7.38281 9.84762C7.27929 9.75973 7.14648 9.7109 7.00976 9.7109C6.84179 9.7109 6.68163 9.78316 6.57226 9.91207C6.36718 10.1523 6.39453 10.5175 6.63671 10.7226L8.83788 12.6054C8.93945 12.6914 9.08007 12.7421 9.2207 12.7421C9.23828 12.7421 9.25585 12.7421 9.27343 12.7402C9.42968 12.7246 9.57421 12.6425 9.66992 12.5175L13.4531 7.5566C13.5469 7.43355 13.5859 7.28316 13.5644 7.13082C13.5449 6.97848 13.4648 6.84371 13.3437 6.74996C13.0879 6.55465 12.7266 6.60347 12.5352 6.85543Z" fill="#ACADAD" fill-opacity="0.5"/>
</svg>
